<mxfile host="app.diagrams.net" modified="2024-03-14T19:50:58.057Z" agent="Mozilla/5.0 (Windows NT 10.0; Win64; x64) AppleWebKit/537.36 (KHTML, like Gecko) Chrome/122.0.0.0 Safari/537.36" etag="HGQwJDdcXIQ5_hpXr7yQ" version="24.0.5" type="device">
  <diagram name="Page-1" id="DT5o3Hpj0EOvoEUiTliU">
    <mxGraphModel dx="1687" dy="1059" grid="1" gridSize="10" guides="1" tooltips="1" connect="1" arrows="1" fold="1" page="1" pageScale="1" pageWidth="827" pageHeight="1169" math="0" shadow="0">
      <root>
        <mxCell id="0" />
        <mxCell id="1" parent="0" />
        <mxCell id="A9yW6bGXncfofyLWxI39-4" style="edgeStyle=orthogonalEdgeStyle;rounded=0;orthogonalLoop=1;jettySize=auto;html=1;exitX=0.5;exitY=1;exitDx=0;exitDy=0;entryX=0.5;entryY=0;entryDx=0;entryDy=0;" edge="1" parent="1" source="A9yW6bGXncfofyLWxI39-1" target="A9yW6bGXncfofyLWxI39-3">
          <mxGeometry relative="1" as="geometry" />
        </mxCell>
        <mxCell id="A9yW6bGXncfofyLWxI39-7" style="edgeStyle=orthogonalEdgeStyle;rounded=0;orthogonalLoop=1;jettySize=auto;html=1;exitX=1;exitY=0.5;exitDx=0;exitDy=0;entryX=0.5;entryY=0;entryDx=0;entryDy=0;" edge="1" parent="1" source="A9yW6bGXncfofyLWxI39-1" target="A9yW6bGXncfofyLWxI39-6">
          <mxGeometry relative="1" as="geometry" />
        </mxCell>
        <mxCell id="A9yW6bGXncfofyLWxI39-1" value="La partie se lance" style="rounded=0;whiteSpace=wrap;html=1;" vertex="1" parent="1">
          <mxGeometry x="354" y="60" width="120" height="60" as="geometry" />
        </mxCell>
        <mxCell id="A9yW6bGXncfofyLWxI39-20" style="edgeStyle=orthogonalEdgeStyle;rounded=0;orthogonalLoop=1;jettySize=auto;html=1;exitX=0.5;exitY=1;exitDx=0;exitDy=0;entryX=0.5;entryY=0;entryDx=0;entryDy=0;" edge="1" parent="1" source="A9yW6bGXncfofyLWxI39-52" target="A9yW6bGXncfofyLWxI39-19">
          <mxGeometry relative="1" as="geometry" />
        </mxCell>
        <mxCell id="A9yW6bGXncfofyLWxI39-3" value="Initialisation des Tamagotchis" style="rounded=0;whiteSpace=wrap;html=1;" vertex="1" parent="1">
          <mxGeometry x="354" y="190" width="120" height="60" as="geometry" />
        </mxCell>
        <mxCell id="A9yW6bGXncfofyLWxI39-59" style="edgeStyle=orthogonalEdgeStyle;rounded=0;orthogonalLoop=1;jettySize=auto;html=1;exitX=0.5;exitY=1;exitDx=0;exitDy=0;" edge="1" parent="1" source="A9yW6bGXncfofyLWxI39-6">
          <mxGeometry relative="1" as="geometry">
            <mxPoint x="630" y="350" as="targetPoint" />
          </mxGeometry>
        </mxCell>
        <mxCell id="A9yW6bGXncfofyLWxI39-6" value="Clock&lt;div&gt;Cycle Jour/Nuit&lt;/div&gt;" style="rounded=0;whiteSpace=wrap;html=1;" vertex="1" parent="1">
          <mxGeometry x="570" y="190" width="120" height="60" as="geometry" />
        </mxCell>
        <mxCell id="A9yW6bGXncfofyLWxI39-17" style="edgeStyle=orthogonalEdgeStyle;rounded=0;orthogonalLoop=1;jettySize=auto;html=1;exitX=0.5;exitY=1;exitDx=0;exitDy=0;entryX=0.5;entryY=0;entryDx=0;entryDy=0;" edge="1" parent="1" source="A9yW6bGXncfofyLWxI39-12" target="A9yW6bGXncfofyLWxI39-16">
          <mxGeometry relative="1" as="geometry" />
        </mxCell>
        <mxCell id="A9yW6bGXncfofyLWxI39-23" value="Oui" style="edgeLabel;html=1;align=center;verticalAlign=middle;resizable=0;points=[];" vertex="1" connectable="0" parent="A9yW6bGXncfofyLWxI39-17">
          <mxGeometry x="-0.5333" y="-2" relative="1" as="geometry">
            <mxPoint as="offset" />
          </mxGeometry>
        </mxCell>
        <mxCell id="A9yW6bGXncfofyLWxI39-33" style="edgeStyle=orthogonalEdgeStyle;rounded=0;orthogonalLoop=1;jettySize=auto;html=1;exitX=1;exitY=0.5;exitDx=0;exitDy=0;endArrow=none;endFill=0;" edge="1" parent="1" source="A9yW6bGXncfofyLWxI39-12">
          <mxGeometry relative="1" as="geometry">
            <mxPoint x="690" y="570" as="targetPoint" />
            <Array as="points">
              <mxPoint x="454" y="740" />
              <mxPoint x="690" y="740" />
            </Array>
          </mxGeometry>
        </mxCell>
        <mxCell id="A9yW6bGXncfofyLWxI39-34" value="Non" style="edgeLabel;html=1;align=center;verticalAlign=middle;resizable=0;points=[];" vertex="1" connectable="0" parent="A9yW6bGXncfofyLWxI39-33">
          <mxGeometry x="-0.381" y="3" relative="1" as="geometry">
            <mxPoint as="offset" />
          </mxGeometry>
        </mxCell>
        <mxCell id="A9yW6bGXncfofyLWxI39-51" style="edgeStyle=orthogonalEdgeStyle;rounded=0;orthogonalLoop=1;jettySize=auto;html=1;exitX=0.5;exitY=0;exitDx=0;exitDy=0;endArrow=none;endFill=0;" edge="1" parent="1" source="A9yW6bGXncfofyLWxI39-12">
          <mxGeometry relative="1" as="geometry">
            <mxPoint x="414" y="760" as="targetPoint" />
          </mxGeometry>
        </mxCell>
        <mxCell id="A9yW6bGXncfofyLWxI39-12" value="Manger ?" style="rhombus;whiteSpace=wrap;html=1;" vertex="1" parent="1">
          <mxGeometry x="374" y="800" width="80" height="80" as="geometry" />
        </mxCell>
        <mxCell id="A9yW6bGXncfofyLWxI39-32" style="edgeStyle=orthogonalEdgeStyle;rounded=0;orthogonalLoop=1;jettySize=auto;html=1;exitX=0.5;exitY=1;exitDx=0;exitDy=0;entryX=1;entryY=0;entryDx=0;entryDy=0;" edge="1" parent="1" source="A9yW6bGXncfofyLWxI39-16" target="A9yW6bGXncfofyLWxI39-19">
          <mxGeometry relative="1" as="geometry">
            <Array as="points">
              <mxPoint x="414" y="1030" />
              <mxPoint x="690" y="1030" />
              <mxPoint x="690" y="500" />
              <mxPoint x="434" y="500" />
            </Array>
          </mxGeometry>
        </mxCell>
        <mxCell id="A9yW6bGXncfofyLWxI39-16" value="Le tamagotchi gagne 50 point de faim et le joueur perd un biscuit" style="rounded=0;whiteSpace=wrap;html=1;" vertex="1" parent="1">
          <mxGeometry x="354" y="940" width="120" height="60" as="geometry" />
        </mxCell>
        <mxCell id="A9yW6bGXncfofyLWxI39-25" style="edgeStyle=orthogonalEdgeStyle;rounded=0;orthogonalLoop=1;jettySize=auto;html=1;exitX=0;exitY=0.5;exitDx=0;exitDy=0;entryX=0;entryY=0;entryDx=0;entryDy=0;" edge="1" parent="1" source="A9yW6bGXncfofyLWxI39-18" target="A9yW6bGXncfofyLWxI39-19">
          <mxGeometry relative="1" as="geometry">
            <Array as="points">
              <mxPoint x="240" y="840" />
              <mxPoint x="240" y="500" />
              <mxPoint x="394" y="500" />
            </Array>
          </mxGeometry>
        </mxCell>
        <mxCell id="A9yW6bGXncfofyLWxI39-26" value="Non" style="edgeLabel;html=1;align=center;verticalAlign=middle;resizable=0;points=[];" vertex="1" connectable="0" parent="A9yW6bGXncfofyLWxI39-25">
          <mxGeometry x="-0.7112" y="2" relative="1" as="geometry">
            <mxPoint as="offset" />
          </mxGeometry>
        </mxCell>
        <mxCell id="A9yW6bGXncfofyLWxI39-29" style="edgeStyle=orthogonalEdgeStyle;rounded=0;orthogonalLoop=1;jettySize=auto;html=1;exitX=0.5;exitY=1;exitDx=0;exitDy=0;entryX=0.5;entryY=0;entryDx=0;entryDy=0;" edge="1" parent="1" source="A9yW6bGXncfofyLWxI39-18" target="A9yW6bGXncfofyLWxI39-28">
          <mxGeometry relative="1" as="geometry" />
        </mxCell>
        <mxCell id="A9yW6bGXncfofyLWxI39-30" value="Oui" style="edgeLabel;html=1;align=center;verticalAlign=middle;resizable=0;points=[];" vertex="1" connectable="0" parent="A9yW6bGXncfofyLWxI39-29">
          <mxGeometry x="-0.625" y="3" relative="1" as="geometry">
            <mxPoint as="offset" />
          </mxGeometry>
        </mxCell>
        <mxCell id="A9yW6bGXncfofyLWxI39-18" value="Jouer ?" style="rhombus;whiteSpace=wrap;html=1;" vertex="1" parent="1">
          <mxGeometry x="260" y="800" width="80" height="80" as="geometry" />
        </mxCell>
        <mxCell id="A9yW6bGXncfofyLWxI39-46" style="edgeStyle=orthogonalEdgeStyle;rounded=0;orthogonalLoop=1;jettySize=auto;html=1;exitX=0.5;exitY=1;exitDx=0;exitDy=0;entryX=0.5;entryY=0;entryDx=0;entryDy=0;" edge="1" parent="1" source="A9yW6bGXncfofyLWxI39-19" target="A9yW6bGXncfofyLWxI39-45">
          <mxGeometry relative="1" as="geometry">
            <Array as="points">
              <mxPoint x="414" y="620" />
              <mxPoint x="414" y="620" />
            </Array>
          </mxGeometry>
        </mxCell>
        <mxCell id="A9yW6bGXncfofyLWxI39-19" value="Action ?" style="rhombus;whiteSpace=wrap;html=1;" vertex="1" parent="1">
          <mxGeometry x="374" y="510" width="80" height="80" as="geometry" />
        </mxCell>
        <mxCell id="A9yW6bGXncfofyLWxI39-31" style="edgeStyle=orthogonalEdgeStyle;rounded=0;orthogonalLoop=1;jettySize=auto;html=1;exitX=0.5;exitY=1;exitDx=0;exitDy=0;endArrow=none;endFill=0;" edge="1" parent="1" source="A9yW6bGXncfofyLWxI39-28">
          <mxGeometry relative="1" as="geometry">
            <mxPoint x="280" y="500" as="targetPoint" />
            <Array as="points">
              <mxPoint x="280" y="1020" />
              <mxPoint x="200" y="1020" />
              <mxPoint x="200" y="500" />
            </Array>
          </mxGeometry>
        </mxCell>
        <mxCell id="A9yW6bGXncfofyLWxI39-28" value="50 point d&#39;ennui mais -50 point de fatigue" style="rounded=0;whiteSpace=wrap;html=1;" vertex="1" parent="1">
          <mxGeometry x="220" y="940" width="120" height="60" as="geometry" />
        </mxCell>
        <mxCell id="A9yW6bGXncfofyLWxI39-47" style="edgeStyle=orthogonalEdgeStyle;rounded=0;orthogonalLoop=1;jettySize=auto;html=1;exitX=1;exitY=0.5;exitDx=0;exitDy=0;endArrow=none;endFill=0;" edge="1" parent="1" source="A9yW6bGXncfofyLWxI39-45">
          <mxGeometry relative="1" as="geometry">
            <mxPoint x="530" y="500" as="targetPoint" />
          </mxGeometry>
        </mxCell>
        <mxCell id="A9yW6bGXncfofyLWxI39-48" value="Oui" style="edgeLabel;html=1;align=center;verticalAlign=middle;resizable=0;points=[];" vertex="1" connectable="0" parent="A9yW6bGXncfofyLWxI39-47">
          <mxGeometry x="0.2749" relative="1" as="geometry">
            <mxPoint as="offset" />
          </mxGeometry>
        </mxCell>
        <mxCell id="A9yW6bGXncfofyLWxI39-49" style="edgeStyle=orthogonalEdgeStyle;rounded=0;orthogonalLoop=1;jettySize=auto;html=1;exitX=0.5;exitY=1;exitDx=0;exitDy=0;entryX=0.5;entryY=0;entryDx=0;entryDy=0;" edge="1" parent="1" source="A9yW6bGXncfofyLWxI39-45" target="A9yW6bGXncfofyLWxI39-18">
          <mxGeometry relative="1" as="geometry" />
        </mxCell>
        <mxCell id="A9yW6bGXncfofyLWxI39-50" value="Non" style="edgeLabel;html=1;align=center;verticalAlign=middle;resizable=0;points=[];" vertex="1" connectable="0" parent="A9yW6bGXncfofyLWxI39-49">
          <mxGeometry x="-0.732" y="2" relative="1" as="geometry">
            <mxPoint as="offset" />
          </mxGeometry>
        </mxCell>
        <mxCell id="A9yW6bGXncfofyLWxI39-45" value="Tamagotchi Dort ?" style="rhombus;whiteSpace=wrap;html=1;" vertex="1" parent="1">
          <mxGeometry x="359" y="640" width="110" height="100" as="geometry" />
        </mxCell>
        <mxCell id="A9yW6bGXncfofyLWxI39-53" value="" style="edgeStyle=orthogonalEdgeStyle;rounded=0;orthogonalLoop=1;jettySize=auto;html=1;exitX=0.5;exitY=1;exitDx=0;exitDy=0;entryX=0.5;entryY=0;entryDx=0;entryDy=0;" edge="1" parent="1" source="A9yW6bGXncfofyLWxI39-3" target="A9yW6bGXncfofyLWxI39-52">
          <mxGeometry relative="1" as="geometry">
            <mxPoint x="414" y="250" as="sourcePoint" />
            <mxPoint x="414" y="510" as="targetPoint" />
            <Array as="points">
              <mxPoint x="414" y="290" />
              <mxPoint x="414" y="290" />
            </Array>
          </mxGeometry>
        </mxCell>
        <mxCell id="A9yW6bGXncfofyLWxI39-63" style="edgeStyle=orthogonalEdgeStyle;rounded=0;orthogonalLoop=1;jettySize=auto;html=1;exitX=1;exitY=0.5;exitDx=0;exitDy=0;entryX=0;entryY=0.5;entryDx=0;entryDy=0;" edge="1" parent="1" source="A9yW6bGXncfofyLWxI39-52" target="A9yW6bGXncfofyLWxI39-6">
          <mxGeometry relative="1" as="geometry" />
        </mxCell>
        <mxCell id="A9yW6bGXncfofyLWxI39-64" value="Transmission" style="edgeLabel;html=1;align=center;verticalAlign=middle;resizable=0;points=[];" vertex="1" connectable="0" parent="A9yW6bGXncfofyLWxI39-63">
          <mxGeometry x="0.1003" y="-1" relative="1" as="geometry">
            <mxPoint as="offset" />
          </mxGeometry>
        </mxCell>
        <mxCell id="A9yW6bGXncfofyLWxI39-52" value="Définition du temps de Sommeil de chaque Tamagotchi&amp;nbsp;" style="rounded=0;whiteSpace=wrap;html=1;" vertex="1" parent="1">
          <mxGeometry x="354" y="310" width="120" height="60" as="geometry" />
        </mxCell>
        <mxCell id="A9yW6bGXncfofyLWxI39-65" style="edgeStyle=orthogonalEdgeStyle;rounded=0;orthogonalLoop=1;jettySize=auto;html=1;exitX=1;exitY=0.5;exitDx=0;exitDy=0;entryX=0.5;entryY=0;entryDx=0;entryDy=0;" edge="1" parent="1" source="A9yW6bGXncfofyLWxI39-60" target="A9yW6bGXncfofyLWxI39-66">
          <mxGeometry relative="1" as="geometry">
            <mxPoint x="760" y="390" as="targetPoint" />
          </mxGeometry>
        </mxCell>
        <mxCell id="A9yW6bGXncfofyLWxI39-67" value="Oui" style="edgeLabel;html=1;align=center;verticalAlign=middle;resizable=0;points=[];" vertex="1" connectable="0" parent="A9yW6bGXncfofyLWxI39-65">
          <mxGeometry x="-0.4475" y="-3" relative="1" as="geometry">
            <mxPoint as="offset" />
          </mxGeometry>
        </mxCell>
        <mxCell id="A9yW6bGXncfofyLWxI39-68" style="edgeStyle=orthogonalEdgeStyle;rounded=0;orthogonalLoop=1;jettySize=auto;html=1;exitX=0.5;exitY=1;exitDx=0;exitDy=0;entryX=1;entryY=0.5;entryDx=0;entryDy=0;" edge="1" parent="1" source="A9yW6bGXncfofyLWxI39-60" target="A9yW6bGXncfofyLWxI39-69">
          <mxGeometry relative="1" as="geometry">
            <mxPoint x="630" y="470" as="targetPoint" />
          </mxGeometry>
        </mxCell>
        <mxCell id="A9yW6bGXncfofyLWxI39-70" value="Non" style="edgeLabel;html=1;align=center;verticalAlign=middle;resizable=0;points=[];" vertex="1" connectable="0" parent="A9yW6bGXncfofyLWxI39-68">
          <mxGeometry x="-0.1111" y="3" relative="1" as="geometry">
            <mxPoint as="offset" />
          </mxGeometry>
        </mxCell>
        <mxCell id="A9yW6bGXncfofyLWxI39-60" value="Jour ?" style="rhombus;whiteSpace=wrap;html=1;" vertex="1" parent="1">
          <mxGeometry x="590" y="350" width="80" height="80" as="geometry" />
        </mxCell>
        <mxCell id="A9yW6bGXncfofyLWxI39-66" value="-5 point de faim&lt;div&gt;-3 point d&#39;ennui&lt;/div&gt;" style="rounded=0;whiteSpace=wrap;html=1;" vertex="1" parent="1">
          <mxGeometry x="690" y="430" width="120" height="60" as="geometry" />
        </mxCell>
        <mxCell id="A9yW6bGXncfofyLWxI39-69" value="+1 Santé&lt;div&gt;+1 d&#39;ennui&lt;/div&gt;&lt;div&gt;+1 de fatigue&lt;/div&gt;" style="rounded=0;whiteSpace=wrap;html=1;" vertex="1" parent="1">
          <mxGeometry x="470" y="420" width="120" height="60" as="geometry" />
        </mxCell>
      </root>
    </mxGraphModel>
  </diagram>
</mxfile>
